<svg xmlns="http://www.w3.org/2000/svg" width="1348" height="8" fill="none" viewBox="0 0 1348 8"><rect width="2" height="2" fill="#242834" rx="1"/><rect width="2" height="2" x="6" fill="#242834" rx="1"/><rect width="2" height="2" x="12" fill="#242834" rx="1"/><rect width="2" height="2" x="18" fill="#242834" rx="1"/><rect width="2" height="2" x="24" fill="#242834" rx="1"/><rect width="2" height="2" x="30" fill="#242834" rx="1"/><rect width="2" height="2" x="36" fill="#242834" rx="1"/><rect width="2" height="2" x="42" fill="#242834" rx="1"/><rect width="2" height="2" x="48" fill="#242834" rx="1"/><rect width="2" height="2" x="54" fill="#242834" rx="1"/><rect width="2" height="2" x="60" fill="#242834" rx="1"/><rect width="2" height="2" x="66" fill="#242834" rx="1"/><rect width="2" height="2" x="72" fill="#242834" rx="1"/><rect width="2" height="2" x="78" fill="#242834" rx="1"/><rect width="2" height="2" x="84" fill="#242834" rx="1"/><rect width="2" height="2" x="90" fill="#242834" rx="1"/><rect width="2" height="2" x="96" fill="#242834" rx="1"/><rect width="2" height="2" x="102" fill="#242834" rx="1"/><rect width="2" height="2" x="108" fill="#242834" rx="1"/><rect width="2" height="2" x="114" fill="#242834" rx="1"/><rect width="2" height="2" x="120" fill="#242834" rx="1"/><rect width="2" height="2" x="126" fill="#242834" rx="1"/><rect width="2" height="2" x="132" fill="#242834" rx="1"/><rect width="2" height="2" x="138" fill="#242834" rx="1"/><rect width="2" height="2" x="144" fill="#242834" rx="1"/><rect width="2" height="2" x="150" fill="#242834" rx="1"/><rect width="2" height="2" x="156" fill="#242834" rx="1"/><rect width="2" height="2" x="162" fill="#242834" rx="1"/><rect width="2" height="2" x="168" fill="#242834" rx="1"/><rect width="2" height="2" x="174" fill="#242834" rx="1"/><rect width="2" height="2" x="180" fill="#242834" rx="1"/><rect width="2" height="2" x="186" fill="#242834" rx="1"/><rect width="2" height="2" x="192" fill="#242834" rx="1"/><rect width="2" height="2" x="198" fill="#242834" rx="1"/><rect width="2" height="2" x="204" fill="#242834" rx="1"/><rect width="2" height="2" x="210" fill="#242834" rx="1"/><rect width="2" height="2" x="216" fill="#242834" rx="1"/><rect width="2" height="2" x="222" fill="#242834" rx="1"/><rect width="2" height="2" x="228" fill="#242834" rx="1"/><rect width="2" height="2" x="234" fill="#242834" rx="1"/><rect width="2" height="2" x="240" fill="#242834" rx="1"/><rect width="2" height="2" x="246" fill="#242834" rx="1"/><rect width="2" height="2" x="252" fill="#242834" rx="1"/><rect width="2" height="2" x="258" fill="#242834" rx="1"/><rect width="2" height="2" x="264" fill="#242834" rx="1"/><rect width="2" height="2" x="270" fill="#242834" rx="1"/><rect width="2" height="2" x="276" fill="#242834" rx="1"/><rect width="2" height="2" x="282" fill="#242834" rx="1"/><rect width="2" height="2" x="288" fill="#242834" rx="1"/><rect width="2" height="2" x="294" fill="#242834" rx="1"/><rect width="2" height="2" x="300" fill="#242834" rx="1"/><rect width="2" height="2" x="306" fill="#242834" rx="1"/><rect width="2" height="2" x="312" fill="#242834" rx="1"/><rect width="2" height="2" x="318" fill="#242834" rx="1"/><rect width="2" height="2" x="324" fill="#242834" rx="1"/><rect width="2" height="2" x="330" fill="#242834" rx="1"/><rect width="2" height="2" x="336" fill="#242834" rx="1"/><rect width="2" height="2" x="342" fill="#242834" rx="1"/><rect width="2" height="2" x="348" fill="#242834" rx="1"/><rect width="2" height="2" x="354" fill="#242834" rx="1"/><rect width="2" height="2" x="360" fill="#242834" rx="1"/><rect width="2" height="2" x="366" fill="#242834" rx="1"/><rect width="2" height="2" x="372" fill="#242834" rx="1"/><rect width="2" height="2" x="378" fill="#242834" rx="1"/><rect width="2" height="2" x="384" fill="#242834" rx="1"/><rect width="2" height="2" x="390" fill="#242834" rx="1"/><rect width="2" height="2" x="396" fill="#242834" rx="1"/><rect width="2" height="2" x="402" fill="#242834" rx="1"/><rect width="2" height="2" x="408" fill="#242834" rx="1"/><rect width="2" height="2" x="414" fill="#242834" rx="1"/><rect width="2" height="2" x="420" fill="#242834" rx="1"/><rect width="2" height="2" x="426" fill="#242834" rx="1"/><rect width="2" height="2" x="432" fill="#242834" rx="1"/><rect width="2" height="2" x="438" fill="#242834" rx="1"/><rect width="2" height="2" x="444" fill="#242834" rx="1"/><rect width="2" height="2" x="450" fill="#242834" rx="1"/><rect width="2" height="2" x="456" fill="#242834" rx="1"/><rect width="2" height="2" x="462" fill="#242834" rx="1"/><rect width="2" height="2" x="468" fill="#242834" rx="1"/><rect width="2" height="2" x="474" fill="#242834" rx="1"/><rect width="2" height="2" x="480" fill="#242834" rx="1"/><rect width="2" height="2" x="486" fill="#242834" rx="1"/><rect width="2" height="2" x="492" fill="#242834" rx="1"/><rect width="2" height="2" x="498" fill="#242834" rx="1"/><rect width="2" height="2" x="504" fill="#242834" rx="1"/><rect width="2" height="2" x="510" fill="#242834" rx="1"/><rect width="2" height="2" x="516" fill="#242834" rx="1"/><rect width="2" height="2" x="522" fill="#242834" rx="1"/><rect width="2" height="2" x="528" fill="#242834" rx="1"/><rect width="2" height="2" x="534" fill="#242834" rx="1"/><rect width="2" height="2" x="540" fill="#242834" rx="1"/><rect width="2" height="2" x="546" fill="#242834" rx="1"/><rect width="2" height="2" x="552" fill="#242834" rx="1"/><rect width="2" height="2" x="558" fill="#242834" rx="1"/><rect width="2" height="2" x="564" fill="#242834" rx="1"/><rect width="2" height="2" x="570" fill="#242834" rx="1"/><rect width="2" height="2" x="576" fill="#242834" rx="1"/><rect width="2" height="2" x="582" fill="#242834" rx="1"/><rect width="2" height="2" x="588" fill="#242834" rx="1"/><rect width="2" height="2" x="594" fill="#242834" rx="1"/><rect width="2" height="2" x="600" fill="#242834" rx="1"/><rect width="2" height="2" x="606" fill="#242834" rx="1"/><rect width="2" height="2" x="612" fill="#242834" rx="1"/><rect width="2" height="2" x="618" fill="#242834" rx="1"/><rect width="2" height="2" x="624" fill="#242834" rx="1"/><rect width="2" height="2" x="630" fill="#242834" rx="1"/><rect width="2" height="2" x="636" fill="#242834" rx="1"/><rect width="2" height="2" x="642" fill="#242834" rx="1"/><rect width="2" height="2" x="648" fill="#242834" rx="1"/><rect width="2" height="2" x="654" fill="#242834" rx="1"/><rect width="2" height="2" x="660" fill="#242834" rx="1"/><rect width="2" height="2" x="666" fill="#242834" rx="1"/><rect width="2" height="2" x="672" fill="#242834" rx="1"/><rect width="2" height="2" x="678" fill="#242834" rx="1"/><rect width="2" height="2" x="684" fill="#242834" rx="1"/><rect width="2" height="2" x="690" fill="#242834" rx="1"/><rect width="2" height="2" x="696" fill="#242834" rx="1"/><rect width="2" height="2" x="702" fill="#242834" rx="1"/><rect width="2" height="2" x="708" fill="#242834" rx="1"/><rect width="2" height="2" x="714" fill="#242834" rx="1"/><rect width="2" height="2" x="720" fill="#242834" rx="1"/><rect width="2" height="2" x="726" fill="#242834" rx="1"/><rect width="2" height="2" x="732" fill="#242834" rx="1"/><rect width="2" height="2" x="738" fill="#242834" rx="1"/><rect width="2" height="2" x="744" fill="#242834" rx="1"/><rect width="2" height="2" x="750" fill="#242834" rx="1"/><rect width="2" height="2" x="756" fill="#242834" rx="1"/><rect width="2" height="2" x="762" fill="#242834" rx="1"/><rect width="2" height="2" x="768" fill="#242834" rx="1"/><rect width="2" height="2" x="774" fill="#242834" rx="1"/><rect width="2" height="2" x="780" fill="#242834" rx="1"/><rect width="2" height="2" x="786" fill="#242834" rx="1"/><rect width="2" height="2" x="792" fill="#242834" rx="1"/><rect width="2" height="2" x="798" fill="#242834" rx="1"/><rect width="2" height="2" x="804" fill="#242834" rx="1"/><rect width="2" height="2" x="810" fill="#242834" rx="1"/><rect width="2" height="2" x="816" fill="#242834" rx="1"/><rect width="2" height="2" x="822" fill="#242834" rx="1"/><rect width="2" height="2" x="828" fill="#242834" rx="1"/><rect width="2" height="2" x="834" fill="#242834" rx="1"/><rect width="2" height="2" x="840" fill="#242834" rx="1"/><rect width="2" height="2" x="846" fill="#242834" rx="1"/><rect width="2" height="2" x="852" fill="#242834" rx="1"/><rect width="2" height="2" x="858" fill="#242834" rx="1"/><rect width="2" height="2" x="864" fill="#242834" rx="1"/><rect width="2" height="2" x="870" fill="#242834" rx="1"/><rect width="2" height="2" x="876" fill="#242834" rx="1"/><rect width="2" height="2" x="882" fill="#242834" rx="1"/><rect width="2" height="2" x="888" fill="#242834" rx="1"/><rect width="2" height="2" x="894" fill="#242834" rx="1"/><rect width="2" height="2" x="900" fill="#242834" rx="1"/><rect width="2" height="2" x="906" fill="#242834" rx="1"/><rect width="2" height="2" x="912" fill="#242834" rx="1"/><rect width="2" height="2" x="918" fill="#242834" rx="1"/><rect width="2" height="2" x="924" fill="#242834" rx="1"/><rect width="2" height="2" x="930" fill="#242834" rx="1"/><rect width="2" height="2" x="936" fill="#242834" rx="1"/><rect width="2" height="2" x="942" fill="#242834" rx="1"/><rect width="2" height="2" x="948" fill="#242834" rx="1"/><rect width="2" height="2" x="954" fill="#242834" rx="1"/><rect width="2" height="2" x="960" fill="#242834" rx="1"/><rect width="2" height="2" x="966" fill="#242834" rx="1"/><rect width="2" height="2" x="972" fill="#242834" rx="1"/><rect width="2" height="2" x="978" fill="#242834" rx="1"/><rect width="2" height="2" x="984" fill="#242834" rx="1"/><rect width="2" height="2" x="990" fill="#242834" rx="1"/><rect width="2" height="2" x="996" fill="#242834" rx="1"/><rect width="2" height="2" x="1002" fill="#242834" rx="1"/><rect width="2" height="2" x="1008" fill="#242834" rx="1"/><rect width="2" height="2" x="1014" fill="#242834" rx="1"/><rect width="2" height="2" x="1020" fill="#242834" rx="1"/><rect width="2" height="2" x="1026" fill="#242834" rx="1"/><rect width="2" height="2" x="1032" fill="#242834" rx="1"/><rect width="2" height="2" x="1038" fill="#242834" rx="1"/><rect width="2" height="2" x="1044" fill="#242834" rx="1"/><rect width="2" height="2" x="1050" fill="#242834" rx="1"/><rect width="2" height="2" x="1056" fill="#242834" rx="1"/><rect width="2" height="2" x="1062" fill="#242834" rx="1"/><rect width="2" height="2" x="1068" fill="#242834" rx="1"/><rect width="2" height="2" x="1074" fill="#242834" rx="1"/><rect width="2" height="2" x="1080" fill="#242834" rx="1"/><rect width="2" height="2" x="1086" fill="#242834" rx="1"/><rect width="2" height="2" x="1092" fill="#242834" rx="1"/><rect width="2" height="2" x="1098" fill="#242834" rx="1"/><rect width="2" height="2" x="1104" fill="#242834" rx="1"/><rect width="2" height="2" x="1110" fill="#242834" rx="1"/><rect width="2" height="2" x="1116" fill="#242834" rx="1"/><rect width="2" height="2" x="1122" fill="#242834" rx="1"/><rect width="2" height="2" x="1128" fill="#242834" rx="1"/><rect width="2" height="2" x="1134" fill="#242834" rx="1"/><rect width="2" height="2" x="1140" fill="#242834" rx="1"/><rect width="2" height="2" x="1146" fill="#242834" rx="1"/><rect width="2" height="2" x="1152" fill="#242834" rx="1"/><rect width="2" height="2" x="1158" fill="#242834" rx="1"/><rect width="2" height="2" x="1164" fill="#242834" rx="1"/><rect width="2" height="2" x="1170" fill="#242834" rx="1"/><rect width="2" height="2" x="1176" fill="#242834" rx="1"/><rect width="2" height="2" x="1182" fill="#242834" rx="1"/><rect width="2" height="2" x="1188" fill="#242834" rx="1"/><rect width="2" height="2" x="1194" fill="#242834" rx="1"/><rect width="2" height="2" x="1200" fill="#242834" rx="1"/><rect width="2" height="2" x="1206" fill="#242834" rx="1"/><rect width="2" height="2" x="1212" fill="#242834" rx="1"/><rect width="2" height="2" x="1218" fill="#242834" rx="1"/><rect width="2" height="2" x="1224" fill="#242834" rx="1"/><rect width="2" height="2" x="1230" fill="#242834" rx="1"/><rect width="2" height="2" x="1236" fill="#242834" rx="1"/><rect width="2" height="2" x="1242" fill="#242834" rx="1"/><rect width="2" height="2" x="1248" fill="#242834" rx="1"/><rect width="2" height="2" x="1254" fill="#242834" rx="1"/><rect width="2" height="2" x="1260" fill="#242834" rx="1"/><rect width="2" height="2" x="1266" fill="#242834" rx="1"/><rect width="2" height="2" x="1272" fill="#242834" rx="1"/><rect width="2" height="2" x="1278" fill="#242834" rx="1"/><rect width="2" height="2" x="1284" fill="#242834" rx="1"/><rect width="2" height="2" x="1290" fill="#242834" rx="1"/><rect width="2" height="2" x="1296" fill="#242834" rx="1"/><rect width="2" height="2" x="1302" fill="#242834" rx="1"/><rect width="2" height="2" x="1308" fill="#242834" rx="1"/><rect width="2" height="2" x="1314" fill="#242834" rx="1"/><rect width="2" height="2" x="1320" fill="#242834" rx="1"/><rect width="2" height="2" x="1326" fill="#242834" rx="1"/><rect width="2" height="2" x="1332" fill="#242834" rx="1"/><rect width="2" height="2" x="1338" fill="#242834" rx="1"/><rect width="2" height="2" x="1344" fill="#242834" rx="1"/><rect width="2" height="2" y="6" fill="#242834" rx="1"/><rect width="2" height="2" x="6" y="6" fill="#242834" rx="1"/><rect width="2" height="2" x="12" y="6" fill="#242834" rx="1"/><rect width="2" height="2" x="18" y="6" fill="#242834" rx="1"/><rect width="2" height="2" x="24" y="6" fill="#242834" rx="1"/><rect width="2" height="2" x="30" y="6" fill="#242834" rx="1"/><rect width="2" height="2" x="36" y="6" fill="#242834" rx="1"/><rect width="2" height="2" x="42" y="6" fill="#242834" rx="1"/><rect width="2" height="2" x="48" y="6" fill="#242834" rx="1"/><rect width="2" height="2" x="54" y="6" fill="#242834" rx="1"/><rect width="2" height="2" x="60" y="6" fill="#242834" rx="1"/><rect width="2" height="2" x="66" y="6" fill="#242834" rx="1"/><rect width="2" height="2" x="72" y="6" fill="#242834" rx="1"/><rect width="2" height="2" x="78" y="6" fill="#242834" rx="1"/><rect width="2" height="2" x="84" y="6" fill="#242834" rx="1"/><rect width="2" height="2" x="90" y="6" fill="#242834" rx="1"/><rect width="2" height="2" x="96" y="6" fill="#242834" rx="1"/><rect width="2" height="2" x="102" y="6" fill="#242834" rx="1"/><rect width="2" height="2" x="108" y="6" fill="#242834" rx="1"/><rect width="2" height="2" x="114" y="6" fill="#242834" rx="1"/><rect width="2" height="2" x="120" y="6" fill="#242834" rx="1"/><rect width="2" height="2" x="126" y="6" fill="#242834" rx="1"/><rect width="2" height="2" x="132" y="6" fill="#242834" rx="1"/><rect width="2" height="2" x="138" y="6" fill="#242834" rx="1"/><rect width="2" height="2" x="144" y="6" fill="#242834" rx="1"/><rect width="2" height="2" x="150" y="6" fill="#242834" rx="1"/><rect width="2" height="2" x="156" y="6" fill="#242834" rx="1"/><rect width="2" height="2" x="162" y="6" fill="#242834" rx="1"/><rect width="2" height="2" x="168" y="6" fill="#242834" rx="1"/><rect width="2" height="2" x="174" y="6" fill="#242834" rx="1"/><rect width="2" height="2" x="180" y="6" fill="#242834" rx="1"/><rect width="2" height="2" x="186" y="6" fill="#242834" rx="1"/><rect width="2" height="2" x="192" y="6" fill="#242834" rx="1"/><rect width="2" height="2" x="198" y="6" fill="#242834" rx="1"/><rect width="2" height="2" x="204" y="6" fill="#242834" rx="1"/><rect width="2" height="2" x="210" y="6" fill="#242834" rx="1"/><rect width="2" height="2" x="216" y="6" fill="#242834" rx="1"/><rect width="2" height="2" x="222" y="6" fill="#242834" rx="1"/><rect width="2" height="2" x="228" y="6" fill="#242834" rx="1"/><rect width="2" height="2" x="234" y="6" fill="#242834" rx="1"/><rect width="2" height="2" x="240" y="6" fill="#242834" rx="1"/><rect width="2" height="2" x="246" y="6" fill="#242834" rx="1"/><rect width="2" height="2" x="252" y="6" fill="#242834" rx="1"/><rect width="2" height="2" x="258" y="6" fill="#242834" rx="1"/><rect width="2" height="2" x="264" y="6" fill="#242834" rx="1"/><rect width="2" height="2" x="270" y="6" fill="#242834" rx="1"/><rect width="2" height="2" x="276" y="6" fill="#242834" rx="1"/><rect width="2" height="2" x="282" y="6" fill="#242834" rx="1"/><rect width="2" height="2" x="288" y="6" fill="#242834" rx="1"/><rect width="2" height="2" x="294" y="6" fill="#242834" rx="1"/><rect width="2" height="2" x="300" y="6" fill="#242834" rx="1"/><rect width="2" height="2" x="306" y="6" fill="#242834" rx="1"/><rect width="2" height="2" x="312" y="6" fill="#242834" rx="1"/><rect width="2" height="2" x="318" y="6" fill="#242834" rx="1"/><rect width="2" height="2" x="324" y="6" fill="#242834" rx="1"/><rect width="2" height="2" x="330" y="6" fill="#242834" rx="1"/><rect width="2" height="2" x="336" y="6" fill="#242834" rx="1"/><rect width="2" height="2" x="342" y="6" fill="#242834" rx="1"/><rect width="2" height="2" x="348" y="6" fill="#242834" rx="1"/><rect width="2" height="2" x="354" y="6" fill="#242834" rx="1"/><rect width="2" height="2" x="360" y="6" fill="#242834" rx="1"/><rect width="2" height="2" x="366" y="6" fill="#242834" rx="1"/><rect width="2" height="2" x="372" y="6" fill="#242834" rx="1"/><rect width="2" height="2" x="378" y="6" fill="#242834" rx="1"/><rect width="2" height="2" x="384" y="6" fill="#242834" rx="1"/><rect width="2" height="2" x="390" y="6" fill="#242834" rx="1"/><rect width="2" height="2" x="396" y="6" fill="#242834" rx="1"/><rect width="2" height="2" x="402" y="6" fill="#242834" rx="1"/><rect width="2" height="2" x="408" y="6" fill="#242834" rx="1"/><rect width="2" height="2" x="414" y="6" fill="#242834" rx="1"/><rect width="2" height="2" x="420" y="6" fill="#242834" rx="1"/><rect width="2" height="2" x="426" y="6" fill="#242834" rx="1"/><rect width="2" height="2" x="432" y="6" fill="#242834" rx="1"/><rect width="2" height="2" x="438" y="6" fill="#242834" rx="1"/><rect width="2" height="2" x="444" y="6" fill="#242834" rx="1"/><rect width="2" height="2" x="450" y="6" fill="#242834" rx="1"/><rect width="2" height="2" x="456" y="6" fill="#242834" rx="1"/><rect width="2" height="2" x="462" y="6" fill="#242834" rx="1"/><rect width="2" height="2" x="468" y="6" fill="#242834" rx="1"/><rect width="2" height="2" x="474" y="6" fill="#242834" rx="1"/><rect width="2" height="2" x="480" y="6" fill="#242834" rx="1"/><rect width="2" height="2" x="486" y="6" fill="#242834" rx="1"/><rect width="2" height="2" x="492" y="6" fill="#242834" rx="1"/><rect width="2" height="2" x="498" y="6" fill="#242834" rx="1"/><rect width="2" height="2" x="504" y="6" fill="#242834" rx="1"/><rect width="2" height="2" x="510" y="6" fill="#242834" rx="1"/><rect width="2" height="2" x="516" y="6" fill="#242834" rx="1"/><rect width="2" height="2" x="522" y="6" fill="#242834" rx="1"/><rect width="2" height="2" x="528" y="6" fill="#242834" rx="1"/><rect width="2" height="2" x="534" y="6" fill="#242834" rx="1"/><rect width="2" height="2" x="540" y="6" fill="#242834" rx="1"/><rect width="2" height="2" x="546" y="6" fill="#242834" rx="1"/><rect width="2" height="2" x="552" y="6" fill="#242834" rx="1"/><rect width="2" height="2" x="558" y="6" fill="#242834" rx="1"/><rect width="2" height="2" x="564" y="6" fill="#242834" rx="1"/><rect width="2" height="2" x="570" y="6" fill="#242834" rx="1"/><rect width="2" height="2" x="576" y="6" fill="#242834" rx="1"/><rect width="2" height="2" x="582" y="6" fill="#242834" rx="1"/><rect width="2" height="2" x="588" y="6" fill="#242834" rx="1"/><rect width="2" height="2" x="594" y="6" fill="#242834" rx="1"/><rect width="2" height="2" x="600" y="6" fill="#242834" rx="1"/><rect width="2" height="2" x="606" y="6" fill="#242834" rx="1"/><rect width="2" height="2" x="612" y="6" fill="#242834" rx="1"/><rect width="2" height="2" x="618" y="6" fill="#242834" rx="1"/><rect width="2" height="2" x="624" y="6" fill="#242834" rx="1"/><rect width="2" height="2" x="630" y="6" fill="#242834" rx="1"/><rect width="2" height="2" x="636" y="6" fill="#242834" rx="1"/><rect width="2" height="2" x="642" y="6" fill="#242834" rx="1"/><rect width="2" height="2" x="648" y="6" fill="#242834" rx="1"/><rect width="2" height="2" x="654" y="6" fill="#242834" rx="1"/><rect width="2" height="2" x="660" y="6" fill="#242834" rx="1"/><rect width="2" height="2" x="666" y="6" fill="#242834" rx="1"/><rect width="2" height="2" x="672" y="6" fill="#242834" rx="1"/><rect width="2" height="2" x="678" y="6" fill="#242834" rx="1"/><rect width="2" height="2" x="684" y="6" fill="#242834" rx="1"/><rect width="2" height="2" x="690" y="6" fill="#242834" rx="1"/><rect width="2" height="2" x="696" y="6" fill="#242834" rx="1"/><rect width="2" height="2" x="702" y="6" fill="#242834" rx="1"/><rect width="2" height="2" x="708" y="6" fill="#242834" rx="1"/><rect width="2" height="2" x="714" y="6" fill="#242834" rx="1"/><rect width="2" height="2" x="720" y="6" fill="#242834" rx="1"/><rect width="2" height="2" x="726" y="6" fill="#242834" rx="1"/><rect width="2" height="2" x="732" y="6" fill="#242834" rx="1"/><rect width="2" height="2" x="738" y="6" fill="#242834" rx="1"/><rect width="2" height="2" x="744" y="6" fill="#242834" rx="1"/><rect width="2" height="2" x="750" y="6" fill="#242834" rx="1"/><rect width="2" height="2" x="756" y="6" fill="#242834" rx="1"/><rect width="2" height="2" x="762" y="6" fill="#242834" rx="1"/><rect width="2" height="2" x="768" y="6" fill="#242834" rx="1"/><rect width="2" height="2" x="774" y="6" fill="#242834" rx="1"/><rect width="2" height="2" x="780" y="6" fill="#242834" rx="1"/><rect width="2" height="2" x="786" y="6" fill="#242834" rx="1"/><rect width="2" height="2" x="792" y="6" fill="#242834" rx="1"/><rect width="2" height="2" x="798" y="6" fill="#242834" rx="1"/><rect width="2" height="2" x="804" y="6" fill="#242834" rx="1"/><rect width="2" height="2" x="810" y="6" fill="#242834" rx="1"/><rect width="2" height="2" x="816" y="6" fill="#242834" rx="1"/><rect width="2" height="2" x="822" y="6" fill="#242834" rx="1"/><rect width="2" height="2" x="828" y="6" fill="#242834" rx="1"/><rect width="2" height="2" x="834" y="6" fill="#242834" rx="1"/><rect width="2" height="2" x="840" y="6" fill="#242834" rx="1"/><rect width="2" height="2" x="846" y="6" fill="#242834" rx="1"/><rect width="2" height="2" x="852" y="6" fill="#242834" rx="1"/><rect width="2" height="2" x="858" y="6" fill="#242834" rx="1"/><rect width="2" height="2" x="864" y="6" fill="#242834" rx="1"/><rect width="2" height="2" x="870" y="6" fill="#242834" rx="1"/><rect width="2" height="2" x="876" y="6" fill="#242834" rx="1"/><rect width="2" height="2" x="882" y="6" fill="#242834" rx="1"/><rect width="2" height="2" x="888" y="6" fill="#242834" rx="1"/><rect width="2" height="2" x="894" y="6" fill="#242834" rx="1"/><rect width="2" height="2" x="900" y="6" fill="#242834" rx="1"/><rect width="2" height="2" x="906" y="6" fill="#242834" rx="1"/><rect width="2" height="2" x="912" y="6" fill="#242834" rx="1"/><rect width="2" height="2" x="918" y="6" fill="#242834" rx="1"/><rect width="2" height="2" x="924" y="6" fill="#242834" rx="1"/><rect width="2" height="2" x="930" y="6" fill="#242834" rx="1"/><rect width="2" height="2" x="936" y="6" fill="#242834" rx="1"/><rect width="2" height="2" x="942" y="6" fill="#242834" rx="1"/><rect width="2" height="2" x="948" y="6" fill="#242834" rx="1"/><rect width="2" height="2" x="954" y="6" fill="#242834" rx="1"/><rect width="2" height="2" x="960" y="6" fill="#242834" rx="1"/><rect width="2" height="2" x="966" y="6" fill="#242834" rx="1"/><rect width="2" height="2" x="972" y="6" fill="#242834" rx="1"/><rect width="2" height="2" x="978" y="6" fill="#242834" rx="1"/><rect width="2" height="2" x="984" y="6" fill="#242834" rx="1"/><rect width="2" height="2" x="990" y="6" fill="#242834" rx="1"/><rect width="2" height="2" x="996" y="6" fill="#242834" rx="1"/><rect width="2" height="2" x="1002" y="6" fill="#242834" rx="1"/><rect width="2" height="2" x="1008" y="6" fill="#242834" rx="1"/><rect width="2" height="2" x="1014" y="6" fill="#242834" rx="1"/><rect width="2" height="2" x="1020" y="6" fill="#242834" rx="1"/><rect width="2" height="2" x="1026" y="6" fill="#242834" rx="1"/><rect width="2" height="2" x="1032" y="6" fill="#242834" rx="1"/><rect width="2" height="2" x="1038" y="6" fill="#242834" rx="1"/><rect width="2" height="2" x="1044" y="6" fill="#242834" rx="1"/><rect width="2" height="2" x="1050" y="6" fill="#242834" rx="1"/><rect width="2" height="2" x="1056" y="6" fill="#242834" rx="1"/><rect width="2" height="2" x="1062" y="6" fill="#242834" rx="1"/><rect width="2" height="2" x="1068" y="6" fill="#242834" rx="1"/><rect width="2" height="2" x="1074" y="6" fill="#242834" rx="1"/><rect width="2" height="2" x="1080" y="6" fill="#242834" rx="1"/><rect width="2" height="2" x="1086" y="6" fill="#242834" rx="1"/><rect width="2" height="2" x="1092" y="6" fill="#242834" rx="1"/><rect width="2" height="2" x="1098" y="6" fill="#242834" rx="1"/><rect width="2" height="2" x="1104" y="6" fill="#242834" rx="1"/><rect width="2" height="2" x="1110" y="6" fill="#242834" rx="1"/><rect width="2" height="2" x="1116" y="6" fill="#242834" rx="1"/><rect width="2" height="2" x="1122" y="6" fill="#242834" rx="1"/><rect width="2" height="2" x="1128" y="6" fill="#242834" rx="1"/><rect width="2" height="2" x="1134" y="6" fill="#242834" rx="1"/><rect width="2" height="2" x="1140" y="6" fill="#242834" rx="1"/><rect width="2" height="2" x="1146" y="6" fill="#242834" rx="1"/><rect width="2" height="2" x="1152" y="6" fill="#242834" rx="1"/><rect width="2" height="2" x="1158" y="6" fill="#242834" rx="1"/><rect width="2" height="2" x="1164" y="6" fill="#242834" rx="1"/><rect width="2" height="2" x="1170" y="6" fill="#242834" rx="1"/><rect width="2" height="2" x="1176" y="6" fill="#242834" rx="1"/><rect width="2" height="2" x="1182" y="6" fill="#242834" rx="1"/><rect width="2" height="2" x="1188" y="6" fill="#242834" rx="1"/><rect width="2" height="2" x="1194" y="6" fill="#242834" rx="1"/><rect width="2" height="2" x="1200" y="6" fill="#242834" rx="1"/><rect width="2" height="2" x="1206" y="6" fill="#242834" rx="1"/><rect width="2" height="2" x="1212" y="6" fill="#242834" rx="1"/><rect width="2" height="2" x="1218" y="6" fill="#242834" rx="1"/><rect width="2" height="2" x="1224" y="6" fill="#242834" rx="1"/><rect width="2" height="2" x="1230" y="6" fill="#242834" rx="1"/><rect width="2" height="2" x="1236" y="6" fill="#242834" rx="1"/><rect width="2" height="2" x="1242" y="6" fill="#242834" rx="1"/><rect width="2" height="2" x="1248" y="6" fill="#242834" rx="1"/><rect width="2" height="2" x="1254" y="6" fill="#242834" rx="1"/><rect width="2" height="2" x="1260" y="6" fill="#242834" rx="1"/><rect width="2" height="2" x="1266" y="6" fill="#242834" rx="1"/><rect width="2" height="2" x="1272" y="6" fill="#242834" rx="1"/><rect width="2" height="2" x="1278" y="6" fill="#242834" rx="1"/><rect width="2" height="2" x="1284" y="6" fill="#242834" rx="1"/><rect width="2" height="2" x="1290" y="6" fill="#242834" rx="1"/><rect width="2" height="2" x="1296" y="6" fill="#242834" rx="1"/><rect width="2" height="2" x="1302" y="6" fill="#242834" rx="1"/><rect width="2" height="2" x="1308" y="6" fill="#242834" rx="1"/><rect width="2" height="2" x="1314" y="6" fill="#242834" rx="1"/><rect width="2" height="2" x="1320" y="6" fill="#242834" rx="1"/><rect width="2" height="2" x="1326" y="6" fill="#242834" rx="1"/><rect width="2" height="2" x="1332" y="6" fill="#242834" rx="1"/><rect width="2" height="2" x="1338" y="6" fill="#242834" rx="1"/><rect width="2" height="2" x="1344" y="6" fill="#242834" rx="1"/></svg>