<svg xmlns="http://www.w3.org/2000/svg" xmlns:graph="ns_graphs;" xmlns:i="ns_ai;" xmlns:x="ns_extend;" xmlns:xlink="http://www.w3.org/1999/xlink" id="Layer_1" x="0" style="enable-background:new 0 0 50.6 50.6" y="0" version="1.1" viewBox="0 0 50.6 50.6" xml:space="preserve"><style type="text/css">.st0{fill:#fff}</style><metadata><sfw xmlns="ns_sfw;"><slices/><sliceSourceBounds width="50.6" height="50.6" x="0" y="0" bottomLeftOrigin="true"/></sfw></metadata><g><g><path d="M0.6,0H5c0.3,0,0.6,0.3,0.6,0.6V50c0,0.3-0.3,0.6-0.6,0.6H0.6C0.3,50.6,0,50.4,0,50V0.6C0,0.3,0.3,0,0.6,0z" class="st0"/><path d="M11.8,0h4.4c0.3,0,0.6,0.3,0.6,0.6V50c0,0.3-0.3,0.6-0.6,0.6h-4.4c-0.3,0-0.6-0.3-0.6-0.6V0.6 C11.3,0.3,11.5,0,11.8,0z" class="st0"/><path d="M23.1,0h4.4c0.3,0,0.6,0.3,0.6,0.6V50c0,0.3-0.3,0.6-0.6,0.6h-4.4c-0.3,0-0.6-0.3-0.6-0.6V0.6 C22.5,0.3,22.8,0,23.1,0z" class="st0"/><path d="M34.3,0h4.4c0.3,0,0.6,0.3,0.6,0.6V50c0,0.3-0.3,0.6-0.6,0.6h-4.4c-0.3,0-0.6-0.3-0.6-0.6V0.6 C33.7,0.3,34,0,34.3,0z" class="st0"/><path d="M45.6,19.7H50c0.3,0,0.6,0.3,0.6,0.6v10.1c0,0.3-0.3,0.6-0.6,0.6h-4.4c-0.3,0-0.6-0.3-0.6-0.6V20.3 C45,20,45.3,19.7,45.6,19.7z" class="st0"/></g></g></svg>